# xmcd
#
# Track frame offsets:
#	150
#	18721
#	29824
#	44776
#	59422
#	70853
#	84252
#	96616
#	110917
#	123769
#	137213
#	151681
#
# Disc length: 2210 seconds
#
# Revision: 0
# Processed by: cddbd v1.5.1PL2 Copyright (c) Steve Scherf et al.
# Submitted via: SynApp - FreeCDDB Version: 2.0
#
DISCID=b008a00c
DTITLE=Westlife - Allow Us To Be Frank
DYEAR=2004
DGENRE=Pop
TTITLE0=Westlife_Allow Us To Be Frank(1) - Westlife featuring Joanne Hindley_The Way You Look Tonight(5)[1-3-42814.1]
TTITLE1=Westlife_Allow Us To Be Frank(1) - Westlife_Ain't That A Kick In The Head(1)[1-3-42814.1]
TTITLE2=Westlife_Allow Us To Be Frank(1) - Westlife_Clementine(10)[1-3-42814.1]
TTITLE3=Westlife_Allow Us To Be Frank(1) - Westlife_Come Fly With Me(6)[1-3-42814.1]
TTITLE4=Westlife_Allow Us To Be Frank(1) - Westlife_Fly Me To The Moon(2)[1-3-42814.1]
TTITLE5=Westlife_Allow Us To Be Frank(1) - Westlife_I Left My Heart In San Francisco(8)[1-3-42814.1]
TTITLE6=Westlife_Allow Us To Be Frank(1) - Westlife_Let There Be Love(4)[1-3-42814.1]
TTITLE7=Westlife_Allow Us To Be Frank(1) - Westlife_Mack The Knife(7)[1-3-42814.1]
TTITLE8=Westlife_Allow Us To Be Frank(1) - Westlife_Smile(3)[1-3-42814.1]
TTITLE9=Westlife_Allow Us To Be Frank(1) - Westlife_Summer Wind(9)[1-3-42814.1]
TTITLE10=Westlife_Allow Us To Be Frank(1) - Westlife_That's Life(12)[1-3-42814.1]
TTITLE11=Westlife_Allow Us To Be Frank(1) - Westlife_When I Fall In Love(11)[1-3-42814.1]
EXTD=
EXTT0=
EXTT1=
EXTT2=
EXTT3=
EXTT4=
EXTT5=
EXTT6=
EXTT7=
EXTT8=
EXTT9=
EXTT10=
EXTT11=
PLAYORDER=
